<?xml version="1.0" standalone="no"?>
<!DOCTYPE svg PUBLIC "-//W3C//DTD SVG 20010904//EN"
 "http://www.w3.org/TR/2001/REC-SVG-20010904/DTD/svg10.dtd">
<svg version="1.0" xmlns="http://www.w3.org/2000/svg"
 width="512.000000pt" height="512.000000pt" viewBox="0 0 512.000000 512.000000"
 preserveAspectRatio="xMidYMid meet">

<g transform="translate(0.000000,512.000000) scale(0.100000,-0.100000)"
fill="#000000" stroke="none">
<path d="M1232 3830 c-425 -60 -771 -337 -931 -745 -59 -150 -82 -276 -88
-495 -14 -484 51 -761 246 -1034 173 -244 422 -407 711 -466 145 -30 358 -24
503 14 377 98 675 367 813 734 13 34 24 67 24 72 0 16 -127 12 -167 -5 -53
-22 -66 -37 -118 -128 -100 -178 -231 -304 -410 -393 -135 -67 -235 -93 -385
-101 -364 -18 -685 157 -868 475 -87 149 -132 316 -132 490 l0 102 1066 0
1066 0 -5 243 c-6 254 -13 307 -62 453 -128 382 -456 675 -855 765 -98 22
-314 32 -408 19z m395 -235 c334 -85 603 -354 688 -688 16 -63 27 -143 31
-223 l7 -124 -961 0 -962 0 0 78 c0 157 55 365 134 507 97 173 253 320 421
396 197 89 426 108 642 54z"/>
<path d="M2591 3713 c18 -27 357 -474 434 -573 33 -43 105 -137 160 -210 55
-73 157 -207 227 -299 70 -91 127 -171 128 -177 0 -6 -104 -148 -231 -315
-696 -914 -769 -1010 -769 -1022 0 -6 31 -8 90 -4 96 6 154 26 207 71 17 15
213 265 434 556 222 292 406 530 409 530 6 0 186 -234 580 -755 117 -154 226
-295 243 -313 53 -55 122 -82 226 -89 60 -4 91 -2 91 4 0 6 -124 175 -276 374
-152 200 -322 424 -378 498 -55 73 -156 205 -223 293 -68 88 -123 166 -123
172 0 6 79 115 176 241 505 663 741 973 767 1009 l20 28 -104 -4 c-157 -6
-185 -26 -356 -254 -337 -446 -635 -834 -643 -834 -8 0 -210 263 -608 790
-211 278 -228 292 -391 298 -102 4 -104 4 -90 -15z"/>
</g>
</svg>
