<?xml version="1.0" standalone="no"?>
<!DOCTYPE svg PUBLIC "-//W3C//DTD SVG 20010904//EN"
 "http://www.w3.org/TR/2001/REC-SVG-20010904/DTD/svg10.dtd">
<svg version="1.0" xmlns="http://www.w3.org/2000/svg"
 width="256.000000pt" height="256.000000pt" viewBox="0 0 256.000000 256.000000"
 preserveAspectRatio="xMidYMid meet">

<g transform="translate(0.000000,256.000000) scale(0.100000,-0.100000)"
fill="#000000" stroke="none">
<path d="M1320 2066 c0 -2 8 -10 18 -17 15 -13 16 -12 3 4 -13 16 -21 21 -21
13z"/>
<path d="M1360 2026 c0 -2 8 -10 18 -17 15 -13 16 -12 3 4 -13 16 -21 21 -21
13z"/>
<path d="M1406 1967 c3 -10 9 -15 12 -12 3 3 0 11 -7 18 -10 9 -11 8 -5 -6z"/>
<path d="M1476 1867 c3 -10 9 -15 12 -12 3 3 0 11 -7 18 -10 9 -11 8 -5 -6z"/>
<path d="M1475 1164 c-9 -14 -15 -27 -13 -30 2 -2 12 10 22 26 21 37 15 40 -9
4z"/>
<path d="M1409 1073 c-13 -16 -12 -17 4 -4 9 7 17 15 17 17 0 8 -8 3 -21 -13z"/>
<path d="M1351 1019 c-13 -11 -22 -22 -19 -24 2 -3 15 6 28 20 28 30 24 32 -9
4z"/>
<path d="M1623 679 c25 -14 25 -206 0 -224 -25 -18 122 -8 159 11 34 17 68 69
68 102 0 62 -58 122 -117 122 -26 -1 -25 -2 11 -15 44 -15 52 -25 66 -75 13
-47 -3 -105 -35 -126 -14 -9 -39 -14 -62 -12 l-38 3 -3 107 c-2 95 -1 107 15
111 10 2 -4 4 -32 5 -37 0 -45 -2 -32 -9z"/>
<path d="M1903 683 c15 -4 17 -18 17 -113 0 -77 -4 -110 -12 -113 -7 -3 3 -6
22 -7 19 -1 43 -3 53 -5 25 -5 21 4 -8 15 -26 10 -26 10 -23 120 l3 110 -35
-1 c-19 -1 -27 -3 -17 -6z"/>
<path d="M2000 681 c14 -4 31 -19 38 -35 12 -24 12 -30 -3 -46 -9 -10 -29 -21
-44 -23 -24 -4 -24 -4 5 -6 69 -3 88 -91 24 -114 -12 -4 -11 -6 3 -6 24 -1 67
43 67 69 0 12 -12 32 -26 45 -24 22 -25 26 -10 40 35 35 2 86 -54 84 l-25 -1
25 -7z"/>
<path d="M465 602 c-27 -5 -44 -22 -22 -22 25 0 25 -107 0 -126 -16 -12 -12
-13 31 -14 43 0 47 2 32 13 -13 10 -17 24 -14 67 3 52 4 55 32 58 36 4 46 -10
46 -67 0 -30 -5 -48 -17 -57 -16 -12 -13 -13 25 -14 23 0 42 5 42 10 0 6 -5
10 -10 10 -7 0 -10 22 -8 58 3 56 3 57 33 57 29 0 30 -1 33 -53 2 -31 -2 -60
-9 -68 -10 -12 -5 -14 30 -14 40 0 55 13 27 23 -8 3 -12 15 -9 31 16 80 -27
132 -85 103 -27 -13 -32 -13 -46 1 -14 14 -21 14 -48 4 -18 -6 -34 -8 -37 -4
-4 4 -15 6 -26 4z"/>
<path d="M791 584 c-59 -50 -28 -144 47 -144 41 1 63 13 80 47 19 35 14 72
-13 98 -32 33 -75 32 -114 -1z m83 -10 c24 -23 21 -100 -3 -114 -24 -12 -48
-4 -61 21 -11 20 -13 92 -3 102 12 13 51 7 67 -9z"/>
<path d="M993 603 c-23 -4 -33 -23 -13 -23 6 0 10 -27 10 -60 0 -33 -4 -60
-10 -60 -5 0 -10 -4 -10 -10 0 -5 18 -10 40 -10 22 0 40 5 40 10 0 6 -5 10
-10 10 -7 0 -10 22 -8 58 3 56 3 57 33 57 30 0 30 -1 33 -57 2 -36 -1 -58 -8
-58 -5 0 -10 -4 -10 -10 0 -5 18 -10 40 -10 22 0 40 5 40 10 0 6 -4 10 -10 10
-5 0 -10 20 -10 44 0 86 -27 119 -81 99 -16 -7 -29 -7 -29 -2 0 5 -3 8 -7 8
-5 -1 -18 -4 -30 -6z"/>
<path d="M1227 590 c-32 -25 -35 -60 -7 -85 19 -17 19 -19 2 -31 -15 -12 -15
-15 -2 -23 12 -8 12 -12 -3 -29 -57 -63 44 -114 112 -56 49 41 37 94 -20 94
-34 0 -59 9 -59 21 0 5 11 9 23 9 28 0 55 27 60 58 2 12 12 29 23 37 18 14 18
14 -6 15 -14 0 -41 3 -60 6 -27 4 -42 1 -63 -16z m68 -40 c0 -28 -4 -36 -22
-38 -26 -4 -47 29 -38 59 5 15 14 19 33 17 24 -3 27 -8 27 -38z m32 -136 c9
-25 -11 -49 -44 -52 -40 -4 -67 21 -53 49 14 25 87 27 97 3z"/>
<path d="M1432 594 c-33 -23 -45 -60 -31 -101 29 -88 159 -62 159 32 0 69 -73
108 -128 69z m85 -38 c26 -55 -5 -118 -50 -100 -32 12 -49 98 -25 122 24 24
57 14 75 -22z"/>
</g>
</svg>
