<?xml version="1.0" standalone="no"?>
<!DOCTYPE svg PUBLIC "-//W3C//DTD SVG 20010904//EN"
 "http://www.w3.org/TR/2001/REC-SVG-20010904/DTD/svg10.dtd">
<svg version="1.0" xmlns="http://www.w3.org/2000/svg"
 width="2100.000000pt" height="1500.000000pt" viewBox="0 0 2100.000000 1500.000000"
 preserveAspectRatio="xMidYMid meet">

<g transform="translate(0.000000,1500.000000) scale(0.100000,-0.100000)"
fill="#000000" stroke="none">
<path d="M2250 3545 l0 -95 135 0 135 0 0 95 0 95 -135 0 -135 0 0 -95z"/>
<path d="M4720 3545 l0 -95 135 0 135 0 0 95 0 95 -135 0 -135 0 0 -95z"/>
<path d="M7030 3545 l0 -95 360 0 c198 0 360 3 360 8 0 4 -39 47 -88 95 l-87
87 -273 0 -272 0 0 -95z"/>
<path d="M9160 3545 l0 -95 135 0 135 0 0 95 0 95 -135 0 -135 0 0 -95z"/>
<path d="M10280 3545 l0 -95 135 0 135 0 0 95 0 95 -135 0 -135 0 0 -95z"/>
<path d="M11870 3545 l0 -95 360 0 c198 0 360 3 360 8 0 4 -39 47 -88 95 l-87
87 -273 0 -272 0 0 -95z"/>
<path d="M14970 3545 l0 -95 135 0 135 0 0 95 0 95 -135 0 -135 0 0 -95z"/>
<path d="M18990 3545 l0 -95 361 0 361 0 -88 95 -87 95 -274 0 -273 0 0 -95z"/>
<path d="M1704 3569 c3 -34 6 -75 6 -90 l0 -29 130 0 130 0 0 90 0 90 -136 0
-137 0 7 -61z"/>
<path d="M2590 3540 l0 -90 359 0 358 0 7 38 c3 20 6 61 6 90 l0 52 -365 0
-365 0 0 -90z"/>
<path d="M3380 3540 l0 -90 359 0 358 0 7 38 c3 20 6 61 6 90 l0 52 -365 0
-365 0 0 -90z"/>
<path d="M4174 3569 c3 -34 6 -75 6 -90 l0 -29 130 0 130 0 0 90 0 90 -136 0
-137 0 7 -61z"/>
<path d="M5450 3540 l0 -90 359 0 358 0 7 38 c3 20 6 61 6 90 l0 52 -365 0
-365 0 0 -90z"/>
<path d="M6240 3540 l0 -90 359 0 358 0 7 38 c3 20 6 61 6 90 l0 52 -365 0
-365 0 0 -90z"/>
<path d="M7820 3540 l0 -90 135 0 135 0 0 90 0 90 -135 0 -135 0 0 -90z"/>
<path d="M8280 3540 l0 -90 130 0 130 0 0 59 c0 32 3 73 6 90 l7 31 -137 0
-136 0 0 -90z"/>
<path d="M8614 3569 c3 -34 6 -75 6 -90 l0 -29 130 0 130 0 0 90 0 90 -136 0
-137 0 7 -61z"/>
<path d="M9490 3540 l0 -90 359 0 358 0 7 38 c3 20 6 61 6 90 l0 52 -365 0
-365 0 0 -90z"/>
<path d="M11080 3540 l0 -90 359 0 358 0 7 38 c3 20 6 61 6 90 l0 52 -365 0
-365 0 0 -90z"/>
<path d="M12660 3540 l0 -90 135 0 135 0 0 90 0 90 -135 0 -135 0 0 -90z"/>
<path d="M12990 3540 l0 -90 359 0 358 0 7 38 c3 20 6 61 6 90 l0 52 -365 0
-365 0 0 -90z"/>
<path d="M13780 3540 l0 -90 359 0 358 0 7 38 c3 20 6 61 6 90 l0 52 -365 0
-365 0 0 -90z"/>
<path d="M15760 3540 l0 -90 135 0 135 0 0 90 0 90 -135 0 -135 0 0 -90z"/>
<path d="M16104 3569 c3 -34 6 -75 6 -90 l0 -29 130 0 130 0 0 39 c0 40 0 40
-42 43 l-43 3 -3 48 -3 47 -91 0 -91 0 7 -61z"/>
<path d="M16828 3583 l-3 -48 -42 -3 c-43 -3 -43 -3 -43 -43 l0 -39 135 0 135
0 0 90 0 90 -89 0 -90 0 -3 -47z"/>
<path d="M17070 3540 l0 -90 135 0 135 0 0 90 0 90 -135 0 -135 0 0 -90z"/>
<path d="M17400 3540 l0 -90 359 0 358 0 7 38 c3 20 6 61 6 90 l0 52 -365 0
-365 0 0 -90z"/>
<path d="M18190 3540 l0 -90 359 0 358 0 7 38 c3 20 6 61 6 90 l0 52 -365 0
-365 0 0 -90z"/>
</g>
</svg>
